<svg xmlns="http://www.w3.org/2000/svg" xmlns:xlink="http://www.w3.org/1999/xlink" id="621cd0f7-cd48-4ca5-9ab8-51101f02d17b" data-name="Layer 1" width="934" height="618.51" viewBox="0 0 934 618.51"><defs><linearGradient id="4bd29515-a36b-434d-8cb2-ef58db952749" x1="405.94" y1="486.08" x2="405.94" gradientUnits="userSpaceOnUse"><stop offset="0" stop-color="gray" stop-opacity="0.25"/><stop offset="0.54" stop-color="gray" stop-opacity="0.12"/><stop offset="1" stop-color="gray" stop-opacity="0.1"/></linearGradient><linearGradient id="75668aed-0dd6-4be1-8f61-e9e9607e27cc" x1="882.19" y1="420.35" x2="882.19" y2="420.11" xlink:href="#4bd29515-a36b-434d-8cb2-ef58db952749"/><linearGradient id="e7a0f4aa-52a5-4948-9edf-debdb0daa9d7" x1="678.75" y1="242.6" x2="678.75" y2="70.7" xlink:href="#4bd29515-a36b-434d-8cb2-ef58db952749"/><linearGradient id="c8614dc2-cdff-4ba8-8237-275c967500fc" x1="811.07" y1="759.23" x2="811.07" y2="366.46" xlink:href="#4bd29515-a36b-434d-8cb2-ef58db952749"/><linearGradient id="08b724b8-eaea-4fee-acb6-2f8c8e2e28b7" x1="784.26" y1="349.97" x2="784.68" y2="349.97" xlink:href="#4bd29515-a36b-434d-8cb2-ef58db952749"/><linearGradient id="399cbcc8-6c11-46ae-9bf3-749ff25996fe" x1="784.59" y1="350.3" x2="785" y2="350.3" xlink:href="#4bd29515-a36b-434d-8cb2-ef58db952749"/><linearGradient id="b33caef3-b1e0-4555-a46c-2bbed8f5044a" x1="784.59" y1="349.97" x2="785" y2="349.97" xlink:href="#4bd29515-a36b-434d-8cb2-ef58db952749"/></defs><path d="M234,543.27c-22.93,1-47.41,5.77-63.38,22.26C144,593,155.14,642.93,185.78,665.86s73,23.64,110.08,14.12c19.93-5.12,40.45-12.94,60.49-8.24,25.25,5.92,42.81,30.26,67.84,37.07C457.82,718,490,693.3,522.4,680.35c55.3-22.13,123.32-7.6,164.76,35.19,11.57,11.94,21.48,26.06,35.93,34.27,14.61,8.31,32.11,9.56,48.91,9.43,50.47-.4,100.16-11.56,149.39-22.66,31.26-7,63.1-14.32,90.74-30.54s50.92-43.14,54.53-75c.63-5.55.61-11.41-1.84-16.44-4.05-8.33-13.52-12.27-22.19-15.52-25.76-9.65-54.71-19.28-80-8.36-6.63,2.87-12.78,7.1-19.86,8.56-20.21,4.15-36.72-14.66-52.46-28C841.59,530,770.59,533.77,708.41,519,636,501.86,559.12,487.84,483.84,498.75c-37.88,5.49-67,31.21-103.19,41.15C332.94,553,282.56,541.2,234,543.27Z" transform="translate(-133 -140.75)" fill="#2d2d5b" opacity="0.5"/></svg>
